<svg width="75" height="33" viewBox="0 0 75 33" fill="none" xmlns="http://www.w3.org/2000/svg">
<g filter="url(#filter0_d)">
<rect x="6" y="4" width="18" height="21" fill="#6776FF"/>
</g>
<path d="M12.7539 22C12.0117 22 11.6406 21.7559 11.6406 21.2676C11.6406 21.0462 11.6895 20.8737 11.7871 20.75C12.0345 20.8151 12.2786 20.8477 12.5195 20.8477C12.7669 20.8477 12.9688 20.8314 13.125 20.7988C13.2878 20.7663 13.431 20.6979 13.5547 20.5938C13.8086 20.3594 13.9421 19.9362 13.9551 19.3242V16.8633L9.24805 9.05078C8.98763 8.6276 8.76953 8.3737 8.59375 8.28906C8.41797 8.19792 8.27799 8.13607 8.17383 8.10352C8.07617 8.07096 7.98828 8.02865 7.91016 7.97656C7.72786 7.8724 7.63672 7.72917 7.63672 7.54688C7.63672 7.27995 7.6888 7.08138 7.79297 6.95117C7.94271 7.00326 8.26497 7.0293 8.75977 7.0293H12.2852C12.9232 7.0293 13.3268 7.13346 13.4961 7.3418C13.5807 7.43945 13.623 7.58919 13.623 7.79102C13.623 7.98633 13.5612 8.15234 13.4375 8.28906C13.2161 8.22396 12.9688 8.19141 12.6953 8.19141C12.1549 8.19141 11.8848 8.39974 11.8848 8.81641C11.8848 9.11589 12.0182 9.48047 12.2852 9.91016L15.4199 15.3203C16.2207 13.9857 16.8034 12.9863 17.168 12.3223L18.0859 10.6035C18.5091 9.7832 18.737 9.30469 18.7695 9.16797C18.8021 9.02474 18.8184 8.91081 18.8184 8.82617C18.8184 8.74154 18.7923 8.66667 18.7402 8.60156C18.6947 8.53646 18.6328 8.48438 18.5547 8.44531C18.4766 8.39974 18.3887 8.36719 18.291 8.34766C18.1934 8.32161 18.0762 8.29232 17.9395 8.25977C17.8027 8.22721 17.6562 8.19466 17.5 8.16211C17.3438 8.12956 17.207 8.08724 17.0898 8.03516C16.8294 7.92448 16.6992 7.74219 16.6992 7.48828C16.6992 7.22786 16.748 7.04883 16.8457 6.95117C16.9954 7.00326 17.3177 7.0293 17.8125 7.0293H21.1914C21.7839 7.0293 22.1615 7.13672 22.3242 7.35156C22.3958 7.44922 22.4316 7.56641 22.4316 7.70312C22.4316 7.96354 22.373 8.15885 22.2559 8.28906C22.0345 8.22396 21.8457 8.19141 21.6895 8.19141C21.5332 8.19141 21.3932 8.24023 21.2695 8.33789C21.1458 8.43555 21.0254 8.56901 20.9082 8.73828C20.7975 8.90755 20.6836 9.10286 20.5664 9.32422C20.2018 10.0404 19.9154 10.584 19.707 10.9551C17.6367 14.4707 16.569 16.2904 16.5039 16.4141L16.2598 16.8242V19.6953C16.2598 20.2552 16.569 20.5872 17.1875 20.6914C17.9297 20.8086 18.3691 20.9095 18.5059 20.9941C18.7402 21.1243 18.8574 21.3099 18.8574 21.5508C18.8574 21.7721 18.8053 21.9479 18.7012 22.0781C18.5514 22.026 18.2292 22 17.7344 22H12.7539Z" fill="#FFFAFA"/>
<path d="M32.3662 15.4912C32.3662 15.8057 32.3115 16.0996 32.2021 16.373C32.0973 16.6419 31.9538 16.8903 31.7715 17.1182C31.5938 17.3415 31.3887 17.542 31.1562 17.7197C30.9284 17.8929 30.6891 18.0387 30.4385 18.1572C30.1924 18.2803 29.9463 18.3737 29.7002 18.4375C29.4541 18.5013 29.2262 18.5332 29.0166 18.5332H28.9482C28.7386 18.5286 28.5153 18.4945 28.2783 18.4307C28.0459 18.3669 27.8135 18.2734 27.5811 18.1504C27.3532 18.0319 27.1344 17.8838 26.9248 17.7061C26.7197 17.5283 26.5374 17.321 26.3779 17.084C26.2184 16.8424 26.0908 16.5736 25.9951 16.2773C25.8994 15.9766 25.8516 15.6462 25.8516 15.2861C25.8516 14.917 25.9085 14.5798 26.0225 14.2744C26.1364 13.9645 26.2845 13.6888 26.4668 13.4473C26.6536 13.2057 26.8633 12.9961 27.0957 12.8184C27.3327 12.6406 27.5697 12.4925 27.8066 12.374C28.0482 12.2555 28.2783 12.1689 28.4971 12.1143C28.7204 12.055 28.9141 12.0254 29.0781 12.0254H29.1328C29.4108 12.0345 29.6842 12.0846 29.9531 12.1758C30.222 12.2624 30.4749 12.3831 30.7119 12.5381C30.9535 12.693 31.1745 12.8776 31.375 13.0918C31.5801 13.3014 31.7555 13.5339 31.9014 13.7891C32.0472 14.0443 32.1611 14.3154 32.2432 14.6025C32.3252 14.8896 32.3662 15.1859 32.3662 15.4912ZM30.1787 15.3818C30.1787 15.2679 30.1787 15.1107 30.1787 14.9102C30.1787 14.7096 30.1696 14.4954 30.1514 14.2676C30.1377 14.0352 30.1104 13.8005 30.0693 13.5635C30.0283 13.3265 29.9668 13.1123 29.8848 12.9209C29.8027 12.7295 29.6956 12.5745 29.5635 12.4561C29.4359 12.333 29.2741 12.2715 29.0781 12.2715C28.7044 12.2715 28.4082 12.5267 28.1895 13.0371C27.9753 13.5475 27.8682 14.32 27.8682 15.3545C27.8682 15.8695 27.8887 16.3115 27.9297 16.6807C27.9753 17.0498 28.0436 17.3529 28.1348 17.5898C28.2259 17.8268 28.3444 18 28.4902 18.1094C28.6361 18.2233 28.8115 18.2803 29.0166 18.2803H29.0781C29.2741 18.2712 29.4359 18.2096 29.5635 18.0957C29.6956 17.9818 29.8027 17.8086 29.8848 17.5762C29.9714 17.3392 30.0352 17.0407 30.0762 16.6807C30.1217 16.3206 30.1559 15.8877 30.1787 15.3818ZM39.6533 12.5791L39.4824 17.8018L40.1934 17.7334L40.2207 17.9863L37.5615 18.2256L37.5752 17.1045C37.4977 17.2731 37.418 17.4212 37.3359 17.5488C37.2539 17.6764 37.1696 17.7881 37.083 17.8838C37.001 17.9749 36.9189 18.0524 36.8369 18.1162C36.7549 18.1846 36.6774 18.2393 36.6045 18.2803C36.4313 18.3805 36.2604 18.4375 36.0918 18.4512C35.6953 18.4512 35.349 18.3714 35.0527 18.2119C34.7565 18.057 34.5104 17.8496 34.3145 17.5898C34.1185 17.3301 33.9704 17.0361 33.8701 16.708C33.7744 16.3753 33.7266 16.0358 33.7266 15.6895L33.8701 12.7773L33.0566 12.7637V12.5107L36.0371 12.5518C35.9368 13.3857 35.8594 14.0898 35.8047 14.6641C35.7546 15.2337 35.7181 15.6963 35.6953 16.0518C35.668 16.471 35.652 16.8083 35.6475 17.0635C35.6475 17.3005 35.6657 17.4919 35.7021 17.6377C35.7386 17.7835 35.7865 17.8975 35.8457 17.9795C35.9049 18.0615 35.9688 18.1162 36.0371 18.1436C36.1055 18.1755 36.1715 18.1937 36.2354 18.1982C36.3311 18.1755 36.4359 18.1299 36.5498 18.0615C36.6683 17.9932 36.7868 17.8883 36.9053 17.7471C37.0283 17.6012 37.1468 17.4121 37.2607 17.1797C37.3747 16.9473 37.4795 16.6602 37.5752 16.3184L37.623 12.8184L36.6113 12.8047V12.5518L39.6533 12.5791ZM40.7197 11.9912L44.1514 11.9092L44.1104 13.7754C44.1924 13.5703 44.2858 13.3743 44.3906 13.1875C44.5 12.9961 44.623 12.8252 44.7598 12.6748C44.8965 12.5244 45.0492 12.4014 45.2178 12.3057C45.3864 12.2054 45.5732 12.1439 45.7783 12.1211C46.0381 12.1211 46.2819 12.1689 46.5098 12.2646C46.7376 12.3558 46.945 12.4834 47.1318 12.6475C47.3232 12.807 47.4919 12.9961 47.6377 13.2148C47.7835 13.4336 47.9066 13.666 48.0068 13.9121C48.1071 14.1582 48.18 14.4111 48.2256 14.6709C48.2712 14.9261 48.2894 15.1768 48.2803 15.4229C48.2757 15.6781 48.2689 15.9401 48.2598 16.209C48.2507 16.4414 48.2393 16.6989 48.2256 16.9814C48.2165 17.2594 48.2028 17.5329 48.1846 17.8018L49.1484 17.8154V18.0684L45.3545 17.9863V17.7334L46.0996 17.7471C46.209 16.5303 46.2363 15.2975 46.1816 14.0488C46.1953 13.4792 46.1634 13.0645 46.0859 12.8047C46.013 12.5449 45.8581 12.4105 45.6211 12.4014C45.5436 12.4242 45.4411 12.4674 45.3135 12.5312C45.1859 12.5951 45.0492 12.7067 44.9033 12.8662C44.762 13.0212 44.6185 13.2354 44.4727 13.5088C44.3314 13.7777 44.2061 14.1263 44.0967 14.5547L44.0283 17.7334H44.7393V17.9863H41.1846V17.7334H41.7998L41.9365 12.2168L40.7197 12.2441V11.9912ZM55.2734 14.5684C55.2734 14.8099 55.196 15.0286 55.041 15.2246C54.8861 15.416 54.6855 15.5801 54.4395 15.7168C54.1979 15.8535 53.9268 15.9629 53.626 16.0449C53.3298 16.1224 53.0381 16.1634 52.751 16.168C52.7327 16.168 52.6917 16.1657 52.6279 16.1611C52.5641 16.1566 52.4867 16.1429 52.3955 16.1201C52.3044 16.0928 52.2018 16.0518 52.0879 15.9971C51.974 15.9424 51.86 15.8626 51.7461 15.7578C51.7598 16.1634 51.7962 16.512 51.8555 16.8037C51.9193 17.0908 52.0013 17.3278 52.1016 17.5146C52.2064 17.6969 52.3271 17.8314 52.4639 17.918C52.6051 18 52.7578 18.041 52.9219 18.041C53.0176 18.041 53.1452 18.0091 53.3047 17.9453C53.4688 17.8815 53.6374 17.7835 53.8105 17.6514C53.9883 17.5192 54.1615 17.3506 54.3301 17.1455C54.4987 16.9404 54.64 16.6943 54.7539 16.4072L54.9521 15.9014L55.1982 15.9834L55.0889 16.291C54.9886 16.5599 54.8564 16.8151 54.6924 17.0566C54.5283 17.2982 54.3369 17.5146 54.1182 17.7061C53.904 17.8929 53.6647 18.0433 53.4004 18.1572C53.1361 18.2757 52.8535 18.3441 52.5527 18.3623C52.0286 18.3441 51.5843 18.2507 51.2197 18.082C50.8551 17.9134 50.5589 17.6992 50.3311 17.4395C50.1032 17.1797 49.9368 16.8903 49.832 16.5713C49.7318 16.2523 49.6816 15.931 49.6816 15.6074C49.6816 15.3932 49.7135 15.1608 49.7773 14.9102C49.8457 14.6549 49.9437 14.3997 50.0713 14.1445C50.1989 13.8848 50.3538 13.6341 50.5361 13.3926C50.723 13.151 50.9326 12.9368 51.165 12.75C51.402 12.5632 51.6595 12.415 51.9375 12.3057C52.2201 12.1917 52.5231 12.1348 52.8467 12.1348C53.1429 12.1439 53.4072 12.1895 53.6396 12.2715C53.8766 12.349 54.084 12.4538 54.2617 12.5859C54.444 12.7135 54.599 12.8594 54.7266 13.0234C54.8542 13.1875 54.959 13.3584 55.041 13.5361C55.123 13.7093 55.1823 13.887 55.2188 14.0693C55.2552 14.2471 55.2734 14.4134 55.2734 14.5684ZM52.7373 12.3877C52.5915 12.3968 52.4548 12.4788 52.3271 12.6338C52.2041 12.7887 52.097 13.0007 52.0059 13.2695C51.9193 13.5339 51.8509 13.846 51.8008 14.2061C51.7507 14.5661 51.7256 14.9535 51.7256 15.3682C51.8395 15.5003 51.9535 15.6029 52.0674 15.6758C52.1813 15.7487 52.2861 15.8034 52.3818 15.8398C52.4775 15.8717 52.5573 15.8923 52.6211 15.9014C52.6849 15.9105 52.7236 15.915 52.7373 15.915C52.915 15.9105 53.0609 15.8717 53.1748 15.7988C53.2933 15.7259 53.3844 15.6257 53.4482 15.498C53.5166 15.3704 53.5645 15.2178 53.5918 15.04C53.6191 14.8623 53.6328 14.6641 53.6328 14.4453C53.6328 14.1719 53.6146 13.9121 53.5781 13.666C53.5462 13.4154 53.4938 13.1966 53.4209 13.0098C53.3525 12.8184 53.2614 12.668 53.1475 12.5586C53.0335 12.4447 52.8968 12.3877 52.7373 12.3877ZM58.5479 18.2529C58.2699 18.2529 58.001 18.2165 57.7412 18.1436C57.4814 18.0752 57.2445 17.9772 57.0303 17.8496C56.8206 17.7174 56.6406 17.5625 56.4902 17.3848C56.3444 17.2025 56.2464 17.002 56.1963 16.7832C56.1963 16.6556 56.2145 16.5371 56.251 16.4277C56.292 16.3184 56.3467 16.2227 56.415 16.1406C56.488 16.0586 56.5723 15.9948 56.668 15.9492C56.7637 15.8991 56.8662 15.874 56.9756 15.874C57.1077 15.874 57.2376 15.9128 57.3652 15.9902C57.4928 16.0677 57.6022 16.1862 57.6934 16.3457C57.7663 16.4779 57.8187 16.61 57.8506 16.7422C57.887 16.8743 57.9144 17.002 57.9326 17.125C57.9554 17.248 57.9736 17.3643 57.9873 17.4736C58.0055 17.5785 58.0329 17.6696 58.0693 17.7471C58.1104 17.8245 58.1673 17.8861 58.2402 17.9316C58.3132 17.9772 58.4157 18 58.5479 18C58.762 18 58.9466 17.9795 59.1016 17.9385C59.2565 17.8975 59.3841 17.8405 59.4844 17.7676C59.5846 17.6947 59.6576 17.6126 59.7031 17.5215C59.7533 17.4303 59.7783 17.3324 59.7783 17.2275C59.7783 17.109 59.7464 16.9883 59.6826 16.8652C59.6188 16.7422 59.5254 16.6283 59.4023 16.5234C59.2793 16.4141 59.1243 16.3161 58.9375 16.2295C58.7552 16.1429 58.541 16.0791 58.2949 16.0381C58.0169 15.9925 57.7594 15.9242 57.5225 15.833C57.29 15.7419 57.0872 15.6211 56.9141 15.4707C56.7409 15.3158 56.6042 15.1289 56.5039 14.9102C56.4082 14.6868 56.3604 14.4202 56.3604 14.1104C56.3604 13.8005 56.4287 13.527 56.5654 13.29C56.7067 13.0485 56.8867 12.8457 57.1055 12.6816C57.3242 12.5176 57.5703 12.3923 57.8438 12.3057C58.1172 12.2191 58.3883 12.1758 58.6572 12.1758C58.7712 12.1758 58.9033 12.1849 59.0537 12.2031C59.2041 12.2168 59.3568 12.2441 59.5117 12.2852C59.6712 12.3262 59.8285 12.3809 59.9834 12.4492C60.1383 12.5176 60.2751 12.6042 60.3936 12.709C60.5166 12.8138 60.6146 12.9391 60.6875 13.085C60.7604 13.2308 60.7969 13.3994 60.7969 13.5908C60.7969 13.7002 60.7764 13.8027 60.7354 13.8984C60.6989 13.9941 60.6465 14.0785 60.5781 14.1514C60.5143 14.2197 60.4368 14.2744 60.3457 14.3154C60.2591 14.3564 60.168 14.377 60.0723 14.377C59.8535 14.377 59.6872 14.3291 59.5732 14.2334C59.4639 14.1377 59.3841 14.0169 59.334 13.8711C59.2839 13.7253 59.2497 13.5703 59.2314 13.4062C59.2178 13.2376 59.195 13.0804 59.1631 12.9346C59.1312 12.7887 59.0788 12.668 59.0059 12.5723C58.9375 12.4766 58.8213 12.4287 58.6572 12.4287C58.3473 12.4515 58.1035 12.5267 57.9258 12.6543C57.7526 12.7773 57.666 12.9437 57.666 13.1533C57.666 13.29 57.6956 13.4245 57.7549 13.5566C57.8141 13.6842 57.8984 13.8027 58.0078 13.9121C58.1217 14.0215 58.2585 14.1172 58.418 14.1992C58.5775 14.2767 58.7552 14.3314 58.9512 14.3633C59.2201 14.4089 59.4775 14.4818 59.7236 14.582C59.9697 14.6823 60.1862 14.8099 60.373 14.9648C60.5645 15.1198 60.7148 15.3021 60.8242 15.5117C60.9382 15.7168 60.9951 15.9447 60.9951 16.1953C60.9951 16.446 60.929 16.6943 60.7969 16.9404C60.6693 17.1865 60.4938 17.4076 60.2705 17.6035C60.0472 17.7949 59.7874 17.9499 59.4912 18.0684C59.195 18.1914 58.8805 18.2529 58.5479 18.2529ZM64.29 18.2529C64.012 18.2529 63.7432 18.2165 63.4834 18.1436C63.2236 18.0752 62.9867 17.9772 62.7725 17.8496C62.5628 17.7174 62.3828 17.5625 62.2324 17.3848C62.0866 17.2025 61.9886 17.002 61.9385 16.7832C61.9385 16.6556 61.9567 16.5371 61.9932 16.4277C62.0342 16.3184 62.0889 16.2227 62.1572 16.1406C62.2301 16.0586 62.3145 15.9948 62.4102 15.9492C62.5059 15.8991 62.6084 15.874 62.7178 15.874C62.8499 15.874 62.9798 15.9128 63.1074 15.9902C63.235 16.0677 63.3444 16.1862 63.4355 16.3457C63.5085 16.4779 63.5609 16.61 63.5928 16.7422C63.6292 16.8743 63.6566 17.002 63.6748 17.125C63.6976 17.248 63.7158 17.3643 63.7295 17.4736C63.7477 17.5785 63.7751 17.6696 63.8115 17.7471C63.8525 17.8245 63.9095 17.8861 63.9824 17.9316C64.0553 17.9772 64.1579 18 64.29 18C64.5042 18 64.6888 17.9795 64.8438 17.9385C64.9987 17.8975 65.1263 17.8405 65.2266 17.7676C65.3268 17.6947 65.3997 17.6126 65.4453 17.5215C65.4954 17.4303 65.5205 17.3324 65.5205 17.2275C65.5205 17.109 65.4886 16.9883 65.4248 16.8652C65.361 16.7422 65.2676 16.6283 65.1445 16.5234C65.0215 16.4141 64.8665 16.3161 64.6797 16.2295C64.4974 16.1429 64.2832 16.0791 64.0371 16.0381C63.7591 15.9925 63.5016 15.9242 63.2646 15.833C63.0322 15.7419 62.8294 15.6211 62.6562 15.4707C62.4831 15.3158 62.3464 15.1289 62.2461 14.9102C62.1504 14.6868 62.1025 14.4202 62.1025 14.1104C62.1025 13.8005 62.1709 13.527 62.3076 13.29C62.4489 13.0485 62.6289 12.8457 62.8477 12.6816C63.0664 12.5176 63.3125 12.3923 63.5859 12.3057C63.8594 12.2191 64.1305 12.1758 64.3994 12.1758C64.5133 12.1758 64.6455 12.1849 64.7959 12.2031C64.9463 12.2168 65.099 12.2441 65.2539 12.2852C65.4134 12.3262 65.5706 12.3809 65.7256 12.4492C65.8805 12.5176 66.0173 12.6042 66.1357 12.709C66.2588 12.8138 66.3568 12.9391 66.4297 13.085C66.5026 13.2308 66.5391 13.3994 66.5391 13.5908C66.5391 13.7002 66.5186 13.8027 66.4775 13.8984C66.4411 13.9941 66.3887 14.0785 66.3203 14.1514C66.2565 14.2197 66.179 14.2744 66.0879 14.3154C66.0013 14.3564 65.9102 14.377 65.8145 14.377C65.5957 14.377 65.4294 14.3291 65.3154 14.2334C65.2061 14.1377 65.1263 14.0169 65.0762 13.8711C65.026 13.7253 64.9919 13.5703 64.9736 13.4062C64.96 13.2376 64.9372 13.0804 64.9053 12.9346C64.8734 12.7887 64.821 12.668 64.748 12.5723C64.6797 12.4766 64.5635 12.4287 64.3994 12.4287C64.0895 12.4515 63.8457 12.5267 63.668 12.6543C63.4948 12.7773 63.4082 12.9437 63.4082 13.1533C63.4082 13.29 63.4378 13.4245 63.4971 13.5566C63.5563 13.6842 63.6406 13.8027 63.75 13.9121C63.8639 14.0215 64.0007 14.1172 64.1602 14.1992C64.3197 14.2767 64.4974 14.3314 64.6934 14.3633C64.9622 14.4089 65.2197 14.4818 65.4658 14.582C65.7119 14.6823 65.9284 14.8099 66.1152 14.9648C66.3066 15.1198 66.457 15.3021 66.5664 15.5117C66.6803 15.7168 66.7373 15.9447 66.7373 16.1953C66.7373 16.446 66.6712 16.6943 66.5391 16.9404C66.4115 17.1865 66.236 17.4076 66.0127 17.6035C65.7894 17.7949 65.5296 17.9499 65.2334 18.0684C64.9372 18.1914 64.6227 18.2529 64.29 18.2529Z" fill="#6776FF"/>
<defs>
<filter id="filter0_d" x="0" y="0" width="30" height="33" filterUnits="userSpaceOnUse" color-interpolation-filters="sRGB">
<feFlood flood-opacity="0" result="BackgroundImageFix"/>
<feColorMatrix in="SourceAlpha" type="matrix" values="0 0 0 0 0 0 0 0 0 0 0 0 0 0 0 0 0 0 127 0"/>
<feOffset dy="2"/>
<feGaussianBlur stdDeviation="3"/>
<feColorMatrix type="matrix" values="0 0 0 0 0 0 0 0 0 0 0 0 0 0 0 0 0 0 0.25 0"/>
<feBlend mode="normal" in2="BackgroundImageFix" result="effect1_dropShadow"/>
<feBlend mode="normal" in="SourceGraphic" in2="effect1_dropShadow" result="shape"/>
</filter>
</defs>
</svg>
